<?xml version="1.0" standalone="no"?>
<!DOCTYPE svg PUBLIC "-//W3C//DTD SVG 20010904//EN"
 "http://www.w3.org/TR/2001/REC-SVG-20010904/DTD/svg10.dtd">
<svg version="1.0" xmlns="http://www.w3.org/2000/svg"
 width="320.000000pt" height="222.000000pt" viewBox="0 0 320.000000 222.000000"
 preserveAspectRatio="xMidYMid meet">

<g transform="translate(0.000000,222.000000) scale(0.100000,-0.100000)"
fill="#000000" stroke="none">
<path d="M1451 2007 c-6 -6 -11 -17 -11 -24 0 -20 -49 -40 -59 -25 -10 16 -41
5 -41 -14 0 -8 7 -14 15 -14 8 0 15 -7 15 -16 0 -10 -8 -15 -22 -14 -39 3 -42
1 -23 -20 14 -16 16 -23 7 -32 -9 -9 -8 -16 5 -30 23 -25 67 -23 98 6 16 15
33 22 45 19 26 -7 25 -19 -1 -26 -17 -5 -19 -9 -10 -26 6 -11 11 -29 11 -40 0
-25 5 -25 45 -2 22 13 31 26 33 49 3 25 8 32 25 32 20 0 19 2 -8 20 -16 11
-44 23 -62 26 -34 6 -36 28 -2 37 15 4 18 11 13 35 -5 24 -2 32 15 42 12 6 19
15 16 20 -8 13 -91 10 -104 -3z"/>
<path d="M1965 1950 c-3 -5 -3 -15 0 -21 9 -14 -24 -38 -52 -39 -12 0 -23 6
-26 13 -3 9 -10 7 -25 -7 -12 -10 -18 -24 -14 -30 4 -6 7 -30 8 -53 1 -24 7
-49 13 -57 18 -22 -3 -56 -29 -49 -27 7 -36 23 -13 23 17 1 17 1 1 11 -10 5
-18 16 -18 24 0 8 -11 17 -25 21 -15 4 -25 13 -25 25 0 16 -5 17 -32 12 -43
-9 -76 -39 -60 -55 21 -21 13 -30 -19 -23 -20 5 -36 2 -47 -8 -21 -17 -139
-50 -152 -42 -5 3 -7 11 -5 18 14 47 15 68 3 61 -7 -5 -21 -7 -31 -6 -10 2
-31 -3 -47 -10 -23 -10 -30 -20 -30 -40 0 -16 5 -28 10 -28 14 0 12 -74 -2
-88 -19 -19 -28 -14 -28 17 0 24 -4 28 -19 24 -10 -3 -22 0 -25 6 -5 7 -13 8
-25 1 -14 -7 -23 -5 -36 10 -29 32 -45 25 -38 -15 5 -30 2 -36 -18 -44 -21 -8
-22 -10 -6 -16 9 -4 17 -15 17 -26 0 -26 29 -39 57 -26 29 13 41 2 25 -23 -16
-27 -17 -26 28 -51 37 -21 44 -29 38 -46 -2 -3 -19 -7 -38 -7 -28 -1 -36 -5
-38 -23 -3 -20 -5 -20 -29 -8 -29 15 -43 12 -43 -11 0 -8 10 -14 26 -14 25 0
26 -1 12 -22 -13 -19 -13 -23 2 -37 9 -9 26 -22 38 -29 20 -11 22 -10 22 9 0
34 31 18 45 -23 7 -21 9 -38 4 -38 -5 0 -9 -11 -9 -23 0 -26 -25 -83 -41 -92
-14 -9 -11 -37 7 -57 13 -13 14 -21 6 -31 -15 -18 -4 -53 25 -85 20 -22 26
-24 48 -14 16 7 25 8 25 1 0 -5 -10 -14 -22 -19 -13 -5 -17 -9 -10 -9 6 -1 12
-13 12 -27 0 -29 24 -53 53 -54 27 0 20 -16 -22 -49 -32 -25 -40 -28 -45 -16
-5 14 -9 14 -42 0 -48 -20 -88 -20 -80 0 8 21 -10 19 -33 -4 -12 -12 -18 -31
-17 -52 2 -33 3 -34 41 -31 35 3 37 2 25 -13 -8 -9 -22 -14 -33 -11 -10 2 -30
1 -43 -4 -21 -8 -23 -12 -12 -29 10 -17 8 -24 -12 -45 -36 -35 -50 -54 -50
-65 0 -5 -13 -3 -30 5 -16 9 -34 13 -40 9 -5 -3 -10 3 -10 14 0 11 -5 23 -10
26 -12 8 6 35 22 35 7 0 6 -5 0 -13 -9 -10 -4 -15 17 -24 35 -13 46 -7 54 28
5 18 2 31 -8 39 -8 7 -15 19 -15 26 0 20 -16 17 -58 -11 -48 -33 -66 -33 -58
0 6 25 1 29 -35 26 -11 -1 -16 7 -17 30 -1 44 -6 44 -36 -1 -33 -50 -33 -63 1
-88 l28 -20 -24 -26 c-16 -17 -21 -31 -17 -43 7 -17 8 -17 22 2 13 17 16 18
24 5 13 -19 12 -30 0 -30 -5 0 -10 -4 -10 -9 0 -5 21 -12 47 -16 37 -5 49 -3
59 9 15 22 27 20 21 -3 -5 -20 9 -51 23 -51 5 0 21 -5 37 -11 20 -7 24 -12 14
-18 -7 -5 -18 -19 -25 -32 -6 -13 -22 -25 -34 -27 -12 -2 -22 -7 -22 -11 0
-14 28 -33 39 -27 5 4 14 -1 19 -10 11 -20 48 -14 44 8 -1 10 9 20 29 27 42
14 62 14 56 -1 -8 -23 11 -58 32 -58 21 0 41 27 35 45 -2 6 3 19 11 29 15 19
15 19 39 -3 l24 -23 17 32 c17 32 17 33 -4 27 -12 -3 -24 -1 -27 5 -3 5 -17 7
-31 3 -22 -5 -23 -4 -13 15 8 15 17 19 28 15 37 -15 49 -16 55 -3 7 19 -3 68
-14 68 -5 0 -9 7 -9 15 0 9 -11 20 -24 25 -13 5 -27 13 -30 19 -3 5 -20 12
-36 16 -38 8 -37 14 1 51 27 26 31 27 40 12 8 -14 15 -15 35 -8 14 6 36 7 48
4 31 -7 41 29 21 70 -17 34 -19 31 22 39 36 7 45 -5 32 -41 -8 -20 -5 -23 21
-29 37 -7 38 -18 3 -29 -21 -5 -24 -8 -10 -11 32 -8 6 -23 -39 -23 -47 0 -51
-6 -45 -68 3 -30 40 -72 64 -72 15 0 18 -5 13 -25 -6 -24 7 -35 19 -15 3 6 19
10 34 10 35 0 60 25 43 42 -21 21 -13 30 18 23 22 -5 42 0 75 18 38 22 82 32
120 28 5 -1 -13 -13 -40 -27 -66 -35 -88 -55 -76 -67 7 -7 5 -14 -5 -21 -32
-24 5 -56 64 -56 28 0 29 -26 2 -35 -22 -7 -26 -25 -9 -42 7 -7 2 -15 -15 -27
-15 -9 -26 -20 -26 -25 0 -16 32 -22 47 -9 12 10 17 9 25 -6 9 -16 12 -15 34
10 14 14 23 29 20 31 -6 6 49 63 60 63 5 0 3 -5 -3 -11 -16 -16 -5 -39 18 -39
16 0 18 5 13 27 -5 19 -2 30 11 39 19 14 13 34 -11 34 -20 0 -18 9 9 30 l22
18 -28 11 c-42 16 -75 13 -97 -9 -23 -23 -34 -26 -27 -6 3 8 -1 22 -8 33 -16
20 -20 53 -6 53 5 0 11 -8 14 -19 10 -40 137 -4 137 39 0 11 -4 20 -9 20 -12
0 -21 63 -10 74 6 6 14 4 21 -6 17 -21 74 -33 83 -18 8 14 45 -16 45 -37 0
-18 17 -16 28 4 7 11 6 23 -2 35 -9 16 -8 21 7 29 18 10 18 12 1 31 -15 16
-16 21 -4 28 12 7 11 10 -5 16 -11 4 -23 12 -27 18 -5 8 -14 7 -29 -2 -20 -13
-21 -12 -15 15 4 16 0 39 -8 55 -13 24 -13 31 0 58 18 34 15 33 48 20 23 -8
26 -7 26 10 0 13 -7 20 -20 20 -21 0 -27 14 -11 24 10 7 -9 56 -22 56 -5 0
-20 14 -35 32 -26 31 -47 98 -30 98 4 0 8 7 8 15 0 8 -4 15 -10 15 -5 0 -10 5
-10 11 0 8 4 8 14 0 20 -17 43 23 26 44 -9 11 -7 20 9 41 22 28 28 54 12 54
-5 0 -12 20 -15 44 -5 30 -13 47 -25 51 -19 6 -64 91 -56 106 4 5 15 9 26 9
11 0 22 6 25 14 11 29 50 -13 45 -47 -1 -4 8 -3 19 3 21 11 27 30 9 30 -5 0
-7 5 -4 10 3 6 15 10 25 10 25 0 31 12 24 49 -7 33 -28 40 -62 22 -13 -7 -20
-4 -28 14 -11 23 -11 23 50 21 l61 -1 -2 33 c-1 26 2 32 18 32 11 0 23 -8 26
-17 4 -10 12 -21 19 -26 7 -4 11 -14 8 -21 -10 -27 17 -27 61 -2 54 32 65 32
65 1 0 -20 5 -25 24 -25 19 0 26 -7 31 -31 7 -29 8 -30 26 -13 11 10 18 22 16
28 -3 6 2 19 11 28 13 16 12 20 -12 48 -31 38 -32 47 -6 55 23 7 24 14 9 35
-8 11 -12 12 -16 3 -5 -14 -24 -18 -22 -5 1 4 1 18 0 31 -1 19 -5 22 -23 18
-12 -4 -28 -1 -36 6 -23 18 -62 -37 -55 -77 l5 -31 -17 23 c-9 13 -23 21 -31
18 -7 -3 -16 -1 -19 4 -10 17 -25 11 -25 -10 0 -11 -7 -20 -15 -20 -20 0 -19
23 3 50 18 22 19 22 44 6 30 -20 40 -11 43 38 3 29 0 32 -43 46 -46 15 -68 40
-36 40 15 0 84 61 84 75 0 3 -12 5 -26 5 -20 0 -25 4 -20 16 9 24 -42 9 -75
-22 -34 -33 -56 -31 -64 6 -7 30 -36 42 -50 20z m-35 -101 c-12 -21 -31 -22
-38 -1 -2 7 2 10 11 6 8 -3 18 -1 22 5 12 20 16 11 5 -10z m95 -54 c0 -22 -22
-30 -44 -16 -12 8 -13 12 -1 26 17 21 45 15 45 -10z m-293 -72 c-3 -16 -12
-33 -19 -38 -12 -9 -11 -14 7 -30 21 -19 22 -19 59 2 46 26 86 22 70 -8 -5
-10 -18 -19 -28 -19 -10 0 -26 -9 -36 -20 -22 -24 -57 -28 -49 -5 7 18 -7 20
-23 4 -9 -9 -21 -8 -47 5 -20 9 -36 21 -36 25 0 4 13 18 30 31 16 12 32 32 36
44 6 20 22 36 35 36 3 0 4 -12 1 -27z m-312 -13 c0 -5 -9 -10 -21 -10 -11 0
-17 5 -14 10 3 6 13 10 21 10 8 0 14 -4 14 -10z m580 -34 c0 -11 -19 -15 -25
-6 -3 5 1 10 9 10 9 0 16 -2 16 -4z m-670 -106 c-8 -5 -19 -10 -25 -10 -5 0
-3 5 5 10 8 5 20 10 25 10 6 0 3 -5 -5 -10z m213 -91 c-18 -36 -32 -44 -46
-30 -6 6 -20 11 -30 11 -15 0 -18 5 -13 23 3 12 6 29 6 38 0 8 12 20 28 25 23
9 30 7 48 -14 19 -23 19 -28 7 -53z m322 1 c3 -5 1 -10 -4 -10 -6 0 -11 5 -11
10 0 6 2 10 4 10 3 0 8 -4 11 -10z m-111 -766 c4 -15 6 -27 4 -28 -50 -36 -49
-36 -76 -5 -24 29 -24 30 -6 44 11 8 31 15 45 15 21 0 28 -6 33 -26z m-829
-104 c-3 -5 -10 -10 -16 -10 -5 0 -9 5 -9 10 0 6 7 10 16 10 8 0 12 -4 9 -10z
m630 -22 c30 -14 31 -19 5 -41 -22 -19 -35 -22 -25 -7 3 6 0 13 -8 16 -9 3
-13 13 -10 25 6 22 5 22 38 7z m-355 -8 c0 -5 -4 -10 -10 -10 -5 0 -10 5 -10
10 0 6 5 10 10 10 6 0 10 -4 10 -10z m314 -99 c3 -5 -1 -11 -9 -15 -15 -6 -29
7 -18 18 9 9 21 8 27 -3z m-439 -41 c-3 -5 -10 -10 -16 -10 -5 0 -9 5 -9 10 0
6 7 10 16 10 8 0 12 -4 9 -10z m168 -17 c12 -11 -14 -33 -39 -33 -23 0 -32 19
-17 33 8 9 48 9 56 0z m282 -3 c-3 -5 -11 -10 -16 -10 -6 0 -7 5 -4 10 3 6 11
10 16 10 6 0 7 -4 4 -10z m-391 -91 c-18 -20 -64 -26 -64 -9 0 6 7 10 15 10 9
0 18 6 21 14 3 8 13 12 25 9 19 -5 19 -7 3 -24z"/>
<path d="M1250 550 c0 -5 5 -10 10 -10 6 0 10 5 10 10 0 6 -4 10 -10 10 -5 0
-10 -4 -10 -10z"/>
</g>
</svg>
